<?xml version="1.0" encoding="UTF-8"?>
<svg id="_レイヤー_2" data-name="レイヤー 2" xmlns="http://www.w3.org/2000/svg" viewBox="0 0 1024 1024">
  <defs>
    <style>
      .cls-1 {
        fill: #0cb5e3;
      }

      .cls-1, .cls-2 {
        stroke-width: 0px;
      }

      .cls-2 {
        fill: #fff;
      }
    </style>
  </defs>
  <g id="_納品データ" data-name="納品データ">
    <g>
      <rect class="cls-2" width="1024" height="1024"/>
      <g>
        <path class="cls-1" d="M998.24,604.91c-1.17-.49-9.77-3.92-18.98-3.92-2.93,0-5.97.45-9.03,1.34-2.58.76-4.97,1.96-7.09,3.54-1.6,1.2-2.72,2.6-3.65,4.49-.89,1.86-1.39,4.96-1.43,8.74.28,4.23,1.69,5.95,2.72,6.87,3.96,3.56,8.98,6.66,14.99,9.19,7.19,3.08,15.35,6.04,24.21,8.81,8.49,2.66,16.54,6.01,24.03,9.97v-30.15c-3.64-3.13-7.28-6.26-10.92-9.39-3.42-3.1-8.32-6.75-14.84-9.49Z"/>
        <path class="cls-1" d="M993.54,914.72c-19.86,6.05-40.27,10.21-60.9,12.57-19.12,2.19-38.39,2.84-57.61,2.12-17.44-.66-34.83-2.44-52.05-5.23-14.88-2.41-29.64-5.58-44.21-9.46-11.5-3.07-22.88-6.58-34.1-10.58-18.41-6.57-36.6-14.35-53.34-24.5-3.93-2.38-7.75-4.95-11.43-7.7-1.9-1.42-3.77-2.89-5.58-4.41-1.58-1.32-3.15-3.27-4.9-4.32,9.83,5.87,20.05,11.09,30.49,15.77,21.09,9.47,42.7,15.65,65.33,20.13,16.77,3.32,33.75,5.53,50.81,6.68,17,1.14,34.08,1.2,51.09.22,16.99-.98,33.92-2.99,50.66-6.01,16.73-3.02,33.28-7.04,49.52-12.04,16.22-4.99,32.14-10.95,47.64-17.85,3.03-1.35,6.03-2.74,9.02-4.16v-71.96c-1.77,1.03-3.58,2.03-5.46,2.97-11.51,5.76-25.52,8.67-41.62,8.67-14.06,0-28.73-2.48-43.6-7.36-16.48-5.4-29.94-14.52-39.99-27.1l-9.5-11.87,10.01-11.43c2.68-3.1,5.2-5.97,7.52-8.69,2.74-3.17,5.82-6.47,9.17-9.84l13.27-13.27,12.84,13.66c4.28,4.56,10.24,8.24,17.69,10.96,8.16,2.98,16.35,4.49,24.35,4.49,1.07,0,3.56-.19,8.19-1.45,3.01-.81,6.02-2.25,8.93-4.32,2.8-1.98,5.28-4.59,7.36-7.76,1.34-2.08,2.03-5.08,2.03-8.88,0-5.27-1-9.24-2.82-11.2-3.29-3.53-7.76-6.47-13.3-8.76-7.36-3.05-15.42-5.76-23.97-8.05-10.77-2.94-20.85-6.92-30.03-11.84-10.26-5.51-19-12.89-26.02-21.9-8-10.29-12.06-24.12-12.06-41.16,0-13.08,2.65-24.88,7.88-35.07,5.06-9.84,11.79-18.22,19.99-24.9,7.93-6.42,16.72-11.32,26.14-14.56,9.36-3.2,18.67-4.82,27.67-4.82,10.17,0,21.85,2.1,35.69,6.42,3.32,1.03,6.53,2.26,9.64,3.65V0H0v563.06c40.38-99.83,81.03-200.35,81.03-200.35l2.13-5.44,7.44.04h51.82l1.73,4.52,70.1,173.69c2.06-.87,4.13-1.72,6.2-2.57,10.32-4.2,20.77-8.07,31.35-11.58,10.52-3.49,21.16-6.62,31.9-9.36,10.71-2.73,21.53-5.06,32.42-6.96,10.9-1.9,21.88-3.37,32.9-4.38,11.09-1.01,22.21-1.56,33.35-1.63,11.26-.07,22.53.37,33.75,1.3,11.43.95,22.82,2.42,34.12,4.4,5.75,1.01,11.48,2.15,17.19,3.42,2.88.64,5.76,1.32,8.62,2.02,2.05.51,4.12.89,6.17,1.39.72.18,1.44.37,2.15.59,5.09,1.57,10.14,3.51,14.95,5.79,2.42,1.15,4.79,2.41,7.08,3.8,1.15.7,2.28,1.44,3.38,2.21.58.4,1.15.82,1.71,1.24.35.26,1.01,1.01,1.42,1.1-6.95-1.44-13.36-3.3-20.07-4.37-2.03-.47-4.19-.92-6.47-1.3-1.98-.34-3.89-.6-5.71-.81-51.7-5.92-103.4-1.21-151.98,12.98-33.95,10.93-66.74,25.5-98.06,43.01l27.7,68.34,65.39,161.64h-82.3l-7.04-17.24c-11.51-28.24-23.21-57.25-34.84-86.24-8.16-20.34-17.15-42.6-27.5-68.09l-1.96-4.84c-.17.04-2.49-5.7-2.49-5.7-.22.09-2.44-5.35-2.44-5.35-65.41,48.58-121.88,110.05-165.13,177.55v228.12h1024v-120.3c-9.96,4.17-20.12,7.87-30.46,11.02ZM481.62,605.36l-18.08.59c-3.1.09-6.19.4-9.33.91-3.61.59-6.81,1.36-9.61,2.19-4.47.84-11.8,2.82-19.13,8.06-17.55,12.15-19.6,35.57-20.07,55.04-1.08,44.55-1.53,89.08-1.53,133.64h-61.59l-.11-171.36c.05,0,.05-25.04.05-25.04v-68.86h59.59v28.3l1.77-1.22c1.55-1.08,3.15-2.13,4.78-3.13,18.36-11.36,37.51-17.31,56.88-17.74l20.72-.45-4.34,59.07ZM823.69,95.47l58.84,146.5,59.32-146.5h30.73l-114.26,282.21h-30.73l38.35-94.55-2.33-9.71-71.47-177.94h31.55ZM504.87,291.42V96.71h30.66v23.75l12.42-8.76c.86-.6,1.77-1.2,2.7-1.8,13.15-8.45,28.41-12.89,45.36-13.19,16,.01,29.26,4.44,39.41,13.17,3.03,2.6,5.74,5.51,8.05,8.67l5.35,7.26,6.48-6.24c3.94-3.79,8.33-7.2,13.04-10.15,12.94-8.13,27.82-12.41,44.21-12.7,17.28.01,31.2,5.02,41.4,14.89,10.15,9.84,15.64,22.75,16.33,38.39v141.4h-31.9l-.02-136.67c-.53-6.77-3.07-12.63-7.77-17.88-4.51-5.03-11.31-7.72-20.81-8.24h-.23s-.2-.01-.2-.01c-7.12.05-14.15,1.29-20.91,3.69-6.8,2.44-12.82,5.87-17.89,10.19-4.96,4.24-9.02,9.39-12.06,15.29-2.89,5.67-4.49,12-4.76,18.81v114.82h-32.32l-.04-136.67c-.53-6.77-3.07-12.63-7.77-17.88-4.51-5.03-11.31-7.72-20.81-8.24h-.23s-.2-.01-.2-.01c-7.08.05-14.06,1.34-20.77,3.86-6.87,2.57-12.94,6.09-18.02,10.45-5.01,4.3-9.06,9.49-12.03,15.44-2.9,5.8-4.37,12.33-4.37,19.4v113.66h-32.32ZM657.19,617.9c-.55-6.83-3.04-12.56-7.79-17.89-4.16-4.65-10.96-7.16-20.75-7.69-8.1.05-16.17,1.55-23.87,4.44-7.95,2.98-14.9,7-20.68,11.96-5.56,4.77-10.08,10.55-13.44,17.22-3.13,6.28-4.71,13.4-4.71,21.15v156.91h-60.27v-267.12h58.12v18.1l1.81-1.27c1.2-.84,2.43-1.67,3.8-2.55,18.53-11.91,40.01-18.17,63.82-18.58,23.07,0,42.33,6.5,57.25,19.32,4.49,3.84,8.48,8.14,11.87,12.78l.77,1.07.95-.91c5.52-5.33,11.72-10.15,18.39-14.33,18.27-11.48,39.23-17.52,62.29-17.91,24.95,0,45.2,7.38,60.24,21.94,15,14.52,23.09,33.47,24,56.3l.02,193.16h-59.72l-.03-186.09c-.53-6.83-3.03-12.56-7.79-17.88-4.16-4.66-10.96-7.18-20.75-7.71-8.21.05-16.38,1.5-24.16,4.27-7.76,2.79-14.63,6.68-20.41,11.6-5.59,4.8-10.12,10.55-13.45,17.09-3.17,6.2-4.92,13.15-5.21,20.67v158.06h-60.26l-.02-186.09Z"/>
        <path class="cls-1" d="M113.33,489.27l-57.91,142.53c28.83-22.76,59.04-43.71,90.43-61.96l-32.52-80.57Z"/>
      </g>
    </g>
  </g>
</svg>